<?xml version="1.0" encoding="iso-8859-1"?>
<!-- Generator: Adobe Illustrator 18.0.0, SVG Export Plug-In . SVG Version: 6.00 Build 0)  -->
<!DOCTYPE svg PUBLIC "-//W3C//DTD SVG 1.1//EN" "http://www.w3.org/Graphics/SVG/1.1/DTD/svg11.dtd">
<svg version="1.1" id="Capa_1" xmlns="http://www.w3.org/2000/svg" xmlns:xlink="http://www.w3.org/1999/xlink" x="0px" y="0px"
	 viewBox="0 0 450.15 450.15" style="enable-background:new 0 0 450.15 450.15;" xml:space="preserve">
<g>
	<linearGradient id="SVGID_1_" gradientUnits="userSpaceOnUse" x1="214.2157" y1="137.5137" x2="300.8686" y2="224.1666">
		<stop  offset="0" style="stop-color:#FCCD82"/>
		<stop  offset="1" style="stop-color:#FBB03B"/>
	</linearGradient>
	<path style="fill:url(#SVGID_1_);" d="M289.18,183.533c2.19-0.27,3.74-2.27,3.47-4.46c-0.28-2.19-2.27-3.75-4.47-3.47l-4,0.5
		c-2.19,0.27-3.74,2.27-3.47,4.46c0.25,2.02,1.98,3.5,3.96,3.5c0.17,0,0.34-0.01,0.51-0.03L289.18,183.533z M295.6,177.783
		c-0.99,1.97-0.19,4.37,1.79,5.36l2,1c0.57,0.29,1.18,0.43,1.79,0.43c1.46,0,2.88-0.82,3.58-2.22c0.98-1.97,0.18-4.38-1.79-5.36
		l-2-1C298.99,175.003,296.59,175.803,295.6,177.783z M233.68,134.063c1.15,0,2.29-0.49,3.08-1.45
		c13.89-16.83,32.81-3.84,33.61-3.28c1.8,1.27,4.29,0.85,5.57-0.95s0.86-4.3-0.94-5.58c-2.13-1.51-4.95-3.06-8.2-4.31
		c3.21-0.92,6.27-2.21,8.98-3.98c5.65-3.7,9.12-8.98,10.33-15.7c0.19-1.07-0.03-2.21-0.69-3.09c-1.26-1.71-3.5-2.11-5.23-1.13
		c-1.33,0.77-3.66,1.03-5.84-0.1c-2.64-1.37-4.32-4.42-4.71-8.58c-0.27-2.83,1.1-5.61,3.67-7.17c1.47-0.89,3.22-1.2,4.93-1.05
		c6.49,0.57,15.36,1.71,22.83,3.95c-0.08,1.09-0.57,1.89-1.02,2.41c-1.31,1.49-3.54,1.98-5.36,1.05c-0.9-0.45-1.92-0.67-2.89-0.43
		c-2.36,0.59-3.51,2.86-2.99,4.92c1.81,7.25,8.04,12.14,15.52,12.16c0.02,0,0.03,0,0.05,0c5.28,0,9.96-2.41,12.92-6.38
		c0,0,0,0,0.01,0c2.75,6.24,4.88,14.29,5.97,23c-8.8-1.46-16.27,3.14-19.46,6.4c-1.54,1.57-1.51,4.08,0.05,5.63
		c0.78,0.77,1.8,1.15,2.81,1.15c1.03,0,2.06-0.39,2.84-1.17c0.28-0.28,6.44-6.28,14.47-3.61c0.14,3.18,0.13,6.4-0.04,9.62
		c-5.03-1.89-9.82-2.03-14.29-0.41c-10.38,3.77-14.59,15.78-14.77,16.29c-0.68,2.01,0.32,4.21,2.29,5
		c2.53,1.02,11.42,4.35,19.59,4.35c2.4,0,4.73-0.29,6.83-1.01c1.26,7.43,0.56,14.98-1.68,22.97c-0.04,0.09-0.06,0.19-0.08,0.28
		c-2.78,9.75-7.82,20.17-14.35,31.86c-7.63,13.66-23.49,20.23-38.56,15.98c-45.33-12.8-57.57-35.71-57.67-35.92
		c-0.99-1.98-3.39-2.78-5.37-1.79s-2.78,3.39-1.79,5.36c0.5,0.99,11.87,22.86,53.07,37.04c-6.7,6.12-18,17.31-24.6,28.68
		c-1.29-0.84-2.62-1.65-4-2.37c-4.48-2.36-9.18-3.91-13.92-4.68c-0.01,0-0.02-0.01-0.02-0.01c-2.18-0.66-12.12-3.8-23.28-8.72
		c-13.52-5.98-23.31-12.2-28.56-18.03c16.59-10.39,20.18-23.43,20.84-30.37c9.58-1.36,15.99-7.49,20.06-13.6
		c5.82,2.36,11.96,2.15,17.02-0.69c6-3.37,9.45-9.73,9.47-17.46c0-0.98-0.32-1.95-0.97-2.69c-1.27-1.45-3.31-1.77-4.91-0.91
		c-3.24,1.72-7.02,2.04-8.97,0.74c-1.35-0.89-1.91-2.7-1.67-5.35c0.74-8.11,2.64-14.56,3.42-16.95c2.48-2.03,8.75-7.7,12.85-16.01
		l0.26,0.13c-0.93,1.66-0.57,3.79,0.94,5.05C231.88,133.763,232.78,134.063,233.68,134.063z M253.5,129.073
		c-17.61,0.8-20.48,9.55-22.2,14.78c-0.27,0.82-0.53,1.6-0.79,2.2c-0.01,0-0.01,0-0.01,0c0,0.01,0,0.01,0,0.01
		c0,0.01-0.01,0.01-0.01,0.02c-0.15,0.35-0.38,0.8-0.6,0.91c-1.98,0.98-2.78,3.39-1.79,5.36c0.99,1.98,3.39,2.78,5.37,1.79
		c0.36-0.18,0.7-0.38,1.03-0.61c6.27,5.22,13.42,7.08,20.22,7.08c8.87,0,17.13-3.17,22.03-6.12c1.13-0.69,1.85-1.89,1.92-3.22
		c0.02-0.38,0.42-9.46-6.05-15.98C268.15,130.793,261.72,128.693,253.5,129.073z M307.14,205.133c0.31-2.19-1.21-4.21-3.39-4.53
		c-0.32-0.04-0.67-0.08-1.05-0.12l-0.66-2.19c-0.64-2.08-2.36-3.64-4.49-4.07c-2.14-0.43-4.33,0.36-5.71,2.04l-0.16,0.19
		c-0.92-1.07-2.13-1.88-3.52-2.34c-2.34-0.77-4.85-0.42-6.89,0.95l-7.34,4.96c-1.6,0.02-2.63,0.04-2.83,0.05
		c-2.21,0.04-3.96,1.87-3.92,4.07c0.04,2.21,1.84,4,4.08,3.92c1.43-0.02,3.38-0.05,5.63-0.08l1.23,2.12
		c2.32,3.99,6.62,6.46,11.23,6.46c4.37,0,8.42-2.17,10.83-5.82l1.53-2.32c0.33,0.03,0.64,0.07,0.9,0.1c0.2,0.03,0.39,0.05,0.57,0.05
		C305.14,208.563,306.85,207.133,307.14,205.133z"/>
	<radialGradient id="SVGID_2_" cx="253.41" cy="157.7626" r="26.83" gradientUnits="userSpaceOnUse">
		<stop  offset="0" style="stop-color:#FF0000"/>
		<stop  offset="0.1834" style="stop-color:#FF0301;stop-opacity:0.8166"/>
		<stop  offset="0.3353" style="stop-color:#FF0E05;stop-opacity:0.6647"/>
		<stop  offset="0.476" style="stop-color:#FE1F0A;stop-opacity:0.524"/>
		<stop  offset="0.6098" style="stop-color:#FE3712;stop-opacity:0.3902"/>
		<stop  offset="0.739" style="stop-color:#FD571D;stop-opacity:0.261"/>
		<stop  offset="0.8644" style="stop-color:#FC7D2A;stop-opacity:0.1356"/>
		<stop  offset="0.9849" style="stop-color:#FBAA39;stop-opacity:0.0151"/>
		<stop  offset="1" style="stop-color:#FBB03B;stop-opacity:0"/>
	</radialGradient>
	<circle style="fill:url(#SVGID_2_);" cx="253.41" cy="157.763" r="26.83"/>
	<radialGradient id="SVGID_3_" cx="317.415" cy="163.5876" r="20.495" gradientUnits="userSpaceOnUse">
		<stop  offset="0" style="stop-color:#FF0000"/>
		<stop  offset="0.1834" style="stop-color:#FF0301;stop-opacity:0.8166"/>
		<stop  offset="0.3353" style="stop-color:#FF0E05;stop-opacity:0.6647"/>
		<stop  offset="0.476" style="stop-color:#FE1F0A;stop-opacity:0.524"/>
		<stop  offset="0.6098" style="stop-color:#FE3712;stop-opacity:0.3902"/>
		<stop  offset="0.739" style="stop-color:#FD571D;stop-opacity:0.261"/>
		<stop  offset="0.8644" style="stop-color:#FC7D2A;stop-opacity:0.1356"/>
		<stop  offset="0.9849" style="stop-color:#FBAA39;stop-opacity:0.0151"/>
		<stop  offset="1" style="stop-color:#FBB03B;stop-opacity:0"/>
	</radialGradient>
	<circle style="fill:url(#SVGID_3_);" cx="317.415" cy="163.588" r="20.495"/>
	<linearGradient id="SVGID_4_" gradientUnits="userSpaceOnUse" x1="254.5" y1="345.4326" x2="254.5" y2="340.3525">
		<stop  offset="0" style="stop-color:#8B8B8B"/>
		<stop  offset="0.5793" style="stop-color:#383838"/>
		<stop  offset="1" style="stop-color:#000000"/>
	</linearGradient>
	<path style="fill:url(#SVGID_4_);" d="M256.19,340.393c-0.48,2.16-1.86,3.82-3.38,5.04c0.02-1.7,0.05-3.4,0.07-5.08
		C253.98,340.363,255.08,340.363,256.19,340.393z"/>
	<linearGradient id="SVGID_5_" gradientUnits="userSpaceOnUse" x1="78.145" y1="281.3925" x2="78.145" y2="257.5725">
		<stop  offset="0" style="stop-color:#00AA8B"/>
		<stop  offset="0.1898" style="stop-color:#00A689"/>
		<stop  offset="0.374" style="stop-color:#009A83"/>
		<stop  offset="0.556" style="stop-color:#00877A"/>
		<stop  offset="0.7367" style="stop-color:#006B6D"/>
		<stop  offset="0.9147" style="stop-color:#00495C"/>
		<stop  offset="1" style="stop-color:#003552"/>
	</linearGradient>
	<path style="fill:url(#SVGID_5_);" d="M88.87,257.573l5.43,3.26c-6.8,6.41-12.98,13.26-18.52,20.56l-13.79-13.79
		c7.72-0.71,14.96-2.86,20.68-6.3L88.87,257.573z"/>
	<linearGradient id="SVGID_6_" gradientUnits="userSpaceOnUse" x1="166.13" y1="385.6276" x2="244.89" y2="385.6276">
		<stop  offset="0" style="stop-color:#FCCD82"/>
		<stop  offset="1" style="stop-color:#FBB03B"/>
	</linearGradient>
	<path style="fill:url(#SVGID_6_);" d="M244.89,340.563c-0.18,16.13-0.71,69.72-0.71,69.98c0,0.32,0.04,0.63,0.11,0.93l-19.22,19.22
		l-58.87-58.88c-0.03-0.11-0.05-0.22-0.07-0.33C173.14,365.493,202.23,342.983,244.89,340.563z"/>
	<linearGradient id="SVGID_7_" gradientUnits="userSpaceOnUse" x1="81.5" y1="280.0026" x2="180.36" y2="280.0026">
		<stop  offset="0" style="stop-color:#003050"/>
		<stop  offset="1" style="stop-color:#0071BC"/>
	</linearGradient>
	<path style="fill:url(#SVGID_7_);" d="M153.24,231.783c4.26,7.19,13.36,14.28,27.12,21.17c-29.25,15.06-48.64,40.32-57.75,75.27
		l-41.11-41.11C98.82,263.933,122.92,245.323,153.24,231.783z"/>
	<linearGradient id="SVGID_8_" gradientUnits="userSpaceOnUse" x1="163.1604" y1="271.9722" x2="212.1051" y2="356.7469">
		<stop  offset="0.3574" style="stop-color:#FFFFFF"/>
		<stop  offset="0.5407" style="stop-color:#FCFCFC"/>
		<stop  offset="0.6747" style="stop-color:#F3F3F3"/>
		<stop  offset="0.793" style="stop-color:#E3E3E3"/>
		<stop  offset="0.9016" style="stop-color:#CCCCCC"/>
		<stop  offset="1" style="stop-color:#B1B1B1"/>
	</linearGradient>
	<path style="fill:url(#SVGID_8_);" d="M254.01,331.493l0.33,0.87c-46.06-0.72-78.52,21.06-90.43,30.55
		c-3.33-10.82-7.37-16.79-10.48-20.01c-1.75-1.81-4.62-1.76-6.12,0.26c-1.21,1.62-1.04,3.81,0.3,5.17c1.7,1.72,4.32,5.2,6.89,11.78
		l-25.27-25.27c8.52-37.31,28.87-63.38,60.52-77.53c1.78,0.77,3.52,1.49,5.2,2.17c-1.61,0.52-3.21,1.14-4.77,1.87
		c-1.92,0.9-2.99,3.1-2.26,5.09c0.83,2.23,3.36,3.23,5.47,2.24c6.15-2.91,12.76-3.87,19.35-2.91c0.16,0.04,0.32,0.06,0.49,0.08
		c3.92,0.63,7.83,1.94,11.62,3.93c10.82,5.69,18.66,16.09,20.46,27.15C247.16,309.373,250.08,321.003,254.01,331.493z"/>
	<linearGradient id="SVGID_9_" gradientUnits="userSpaceOnUse" x1="313.655" y1="403.5326" x2="313.655" y2="257.5725">
		<stop  offset="0" style="stop-color:#00788A"/>
		<stop  offset="0.0895" style="stop-color:#007F8A"/>
		<stop  offset="0.2159" style="stop-color:#00918A"/>
		<stop  offset="0.3404" style="stop-color:#00AA8B"/>
		<stop  offset="0.4656" style="stop-color:#00A689"/>
		<stop  offset="0.5871" style="stop-color:#009A83"/>
		<stop  offset="0.7072" style="stop-color:#00877A"/>
		<stop  offset="0.8263" style="stop-color:#006B6D"/>
		<stop  offset="0.9438" style="stop-color:#00495C"/>
		<stop  offset="1" style="stop-color:#003552"/>
	</linearGradient>
	<path style="fill:url(#SVGID_9_);" d="M388.37,267.393l-136.14,136.14c0.07-10,0.23-29.25,0.47-48.71
		c5.39-2.47,12.09-7.93,11.66-16.75c-0.06-1.25-0.36-2.47-0.78-3.64c-0.78-2.14-2.08-5.75-2.08-5.75
		c-3.73-9.96-6.51-21.04-8.27-32.9c-0.01-0.03-0.02-0.12-0.03-0.15c-1.55-9.54-6.75-18.64-14.26-25.58
		c0.56-1.02,1.17-2.04,1.82-3.06c3.39,0.59,6.85,0.89,10.29,0.89c9.65,0,19.14-2.29,26.28-6.58l6.2-3.73l6.2,3.73
		c14.47,8.71,38.01,8.71,52.48,0l6.21-3.73l6.2,3.73C363.7,266.773,376.49,268.853,388.37,267.393z"/>
	<linearGradient id="SVGID_10_" gradientUnits="userSpaceOnUse" x1="319.19" y1="69.8826" x2="423.6" y2="69.8826">
		<stop  offset="0" style="stop-color:#006D94"/>
		<stop  offset="0.1822" style="stop-color:#00688D"/>
		<stop  offset="0.4405" style="stop-color:#00597B"/>
		<stop  offset="0.7426" style="stop-color:#00405D"/>
		<stop  offset="1" style="stop-color:#00273D"/>
	</linearGradient>
	<path style="fill:url(#SVGID_10_);" d="M423.6,95.893c-3.58,2.26-7.76,3.49-12.06,3.49c-8.88,0-16.95-5.31-20.6-13.23
		c3.61-2.53,6.54-6.04,8.33-10.28c0.86-2.04-0.09-4.39-2.12-5.25c-2.04-0.86-4.38,0.1-5.24,2.13c-2.5,5.9-8.25,9.71-14.65,9.71
		c-1.71,0-3.36-0.27-4.94-0.79c0.04-0.66,0.08-1.33,0.08-2c0-5.24-1.3-10.44-3.75-15.04c-1.04-1.95-3.46-2.68-5.41-1.64
		c-1.95,1.03-2.69,3.46-1.65,5.41c1.84,3.44,2.81,7.34,2.81,11.27c0,1.33-0.11,2.63-0.32,3.88c-1.89,11.62-11.82,20.05-23.61,20.05
		c-4.69,0-9.17-1.35-13.06-3.89c-0.68-2.17-1.43-4.24-2.22-6.18c6.45-20.64,4.73-40.4-4.95-55.77c-0.34-0.54-0.69-1.07-1.05-1.6
		c32.58,0.64,63.11,13.62,86.2,36.72C412.42,79.913,418.51,87.643,423.6,95.893z"/>
	<linearGradient id="SVGID_11_" gradientUnits="userSpaceOnUse" x1="229.93" y1="123.4776" x2="239.51" y2="123.4776">
		<stop  offset="0" style="stop-color:#FCCD82"/>
		<stop  offset="1" style="stop-color:#FBB03B"/>
	</linearGradient>
	<path style="fill:url(#SVGID_11_);" d="M239.51,119.813c-3.1,1.79-6.11,4.31-8.92,7.71c-0.15,0.19-0.29,0.38-0.4,0.58l-0.26-0.13
		c1.37-2.76,2.49-5.81,3.15-9.12C234.84,119.173,237.03,119.523,239.51,119.813z"/>
	<linearGradient id="SVGID_12_" gradientUnits="userSpaceOnUse" x1="238.79" y1="147.5585" x2="270.54" y2="147.5585">
		<stop  offset="0" style="stop-color:#FFFFFF"/>
		<stop  offset="0.1985" style="stop-color:#FCFCFC"/>
		<stop  offset="0.3695" style="stop-color:#F1F1F1"/>
		<stop  offset="0.5302" style="stop-color:#DFDFDF"/>
		<stop  offset="0.6847" style="stop-color:#C6C6C6"/>
		<stop  offset="0.8348" style="stop-color:#A6A6A6"/>
		<stop  offset="0.9796" style="stop-color:#7F7F7F"/>
		<stop  offset="1" style="stop-color:#797979"/>
	</linearGradient>
	<path style="fill:url(#SVGID_12_);" d="M269.12,144.013c-2.81-0.72-5.38-1.22-7.74-1.54c0.19,0.67,0.3,1.37,0.3,2.09
		c0,4.15-3.36,7.5-7.5,7.5c-4.14,0-7.5-3.35-7.5-7.5c0-0.6,0.08-1.18,0.21-1.74c-4.61,1.08-7.11,2.92-8.07,3.78
		c-0.01,0.02-0.02,0.04-0.03,0.06c4.27,3.91,9.42,5.91,15.38,5.98c1.76,0.02,3.59-0.12,5.49-0.44c4.63-0.77,8.59-2.39,10.88-3.48
		C270.36,147.432,269.96,145.713,269.12,144.013z"/>
	<linearGradient id="SVGID_13_" gradientUnits="userSpaceOnUse" x1="315.31" y1="150.5236" x2="322.51" y2="150.5236">
		<stop  offset="0" style="stop-color:#FFFFFF"/>
		<stop  offset="0.1985" style="stop-color:#FCFCFC"/>
		<stop  offset="0.3695" style="stop-color:#F1F1F1"/>
		<stop  offset="0.5302" style="stop-color:#DFDFDF"/>
		<stop  offset="0.6847" style="stop-color:#C6C6C6"/>
		<stop  offset="0.8348" style="stop-color:#A6A6A6"/>
		<stop  offset="0.9796" style="stop-color:#7F7F7F"/>
		<stop  offset="1" style="stop-color:#797979"/>
	</linearGradient>
	<path style="fill:url(#SVGID_13_);" d="M322.51,148.313c-0.21,1.12-0.45,2.23-0.72,3.32c-0.09,0.38-0.13,0.77-0.1,1.15
		c-1.49,0.73-3.76,0.93-6.38,0.75c1.26-1.35,2.04-3.15,2.04-5.13c0-0.32-0.03-0.64-0.07-0.95
		C318.96,147.553,320.73,147.813,322.51,148.313z"/>
	<linearGradient id="SVGID_14_" gradientUnits="userSpaceOnUse" x1="329.405" y1="172.0676" x2="334.3004" y2="176.963">
		<stop  offset="0" style="stop-color:#686867"/>
		<stop  offset="1" style="stop-color:#000000"/>
	</linearGradient>
	<path style="fill:url(#SVGID_14_);" d="M334,172.683c0.67,1.2,0.75,2.61,0.22,3.88c-0.52,1.26-1.58,2.2-2.9,2.58l-0.24,0.07
		c0.61-3.28,0.98-6.57,1.06-9.88L334,172.683z"/>
	<linearGradient id="SVGID_15_" gradientUnits="userSpaceOnUse" x1="326.74" y1="133.8726" x2="336.6937" y2="143.8263">
		<stop  offset="0" style="stop-color:#686867"/>
		<stop  offset="1" style="stop-color:#000000"/>
	</linearGradient>
	<path style="fill:url(#SVGID_15_);" d="M335.77,135.923c1.35,2.5,1.42,5.4,0.18,7.96c-1.09,2.23-2.99,3.84-5.32,4.54
		c1.17-6.55,1.61-13.28,1.44-19.88L335.77,135.923z"/>
	<linearGradient id="SVGID_16_" gradientUnits="userSpaceOnUse" x1="344.115" y1="259.862" x2="344.115" y2="89.5626">
		<stop  offset="0" style="stop-color:#A71419"/>
		<stop  offset="0.429" style="stop-color:#E91B23"/>
		<stop  offset="0.4827" style="stop-color:#E41A22"/>
		<stop  offset="0.5497" style="stop-color:#D41920"/>
		<stop  offset="0.6238" style="stop-color:#BB161C"/>
		<stop  offset="0.703" style="stop-color:#971217"/>
		<stop  offset="0.7855" style="stop-color:#6A0D10"/>
		<stop  offset="0.823" style="stop-color:#530A0D"/>
	</linearGradient>
	<path style="fill:url(#SVGID_16_);" d="M427.6,102.843c9.51,17.89,14.55,37.95,14.55,58.79c0,33.52-13.05,65.03-36.76,88.74
		l-5.82,5.82c-10.36,4.61-24.63,4.79-35.3,0.85l9.37-34.67l18.09,3.62c0.26,0.05,0.53,0.08,0.79,0.08c1.86,0,3.53-1.32,3.91-3.22
		c0.44-2.17-0.97-4.27-3.13-4.71l-17.56-3.51l5.98-22.11l14.01,2.8c0.26,0.05,0.53,0.08,0.79,0.08c1.86,0,3.53-1.32,3.91-3.22
		c0.44-2.16-0.97-4.27-3.13-4.7l-13.49-2.7l4.64-17.18l10.52,2.37c0.29,0.06,0.59,0.1,0.88,0.1c1.83,0,3.48-1.27,3.9-3.13
		c0.48-2.15-0.87-4.29-3.03-4.78l-10.18-2.29l1.83-6.76c0.58-2.13-0.68-4.33-2.81-4.91c-2.14-0.57-4.33,0.69-4.91,2.82l-1.92,7.09
		l-8.67-1.95c-2.16-0.48-4.3,0.87-4.78,3.03c-0.49,2.15,0.87,4.29,3.02,4.78l8.34,1.87l-4.69,17.37l-15.32-3.07
		c-2.16-0.44-4.27,0.97-4.71,3.14c-0.43,2.17,0.98,4.27,3.14,4.71l14.79,2.95l-5.98,22.12l-21.24-4.25
		c-2.17-0.44-4.27,0.97-4.71,3.14c-0.43,2.16,0.98,4.27,3.14,4.7l20.72,4.15l-8.81,32.58l-6.49-3.9c-1.27-0.77-2.85-0.77-4.12,0
		l-8.27,4.97c-11.99,7.21-32.25,7.21-44.24,0l-8.26-4.97c-1.27-0.77-2.85-0.77-4.12,0l-8.26,4.97c-7.04,4.23-17.3,6.1-27.13,5.18
		c7.39-9.2,16.4-17.33,19.99-20.44c0.23,0.07,0.45,0.14,0.68,0.2c3.8,1.08,7.64,1.59,11.43,1.59c14.8,0,28.77-7.89,36.29-21.35
		c5.5-9.85,11.02-20.47,14.4-31.48l4.64-1.32c3.68-1.04,6.63-3.67,8.1-7.21c1.47-3.53,1.24-7.48-0.62-10.83l-7.21-12.98
		c4.09-1.46,7.42-4.43,9.37-8.44c2.37-4.9,2.25-10.46-0.33-15.24l-11.86-21.98c3.05,0.95,6.24,1.45,9.51,1.45
		c14.09,0,26.18-9.03,30.36-22.03c2.09,0.58,4.25,0.89,6.43,0.89c2.22,0,4.39-0.32,6.45-0.9c4.96,10.67,15.85,17.82,27.83,17.82
		C417.25,107.383,422.8,105.793,427.6,102.843z"/>
	<linearGradient id="SVGID_17_" gradientUnits="userSpaceOnUse" x1="97.89" y1="187.4725" x2="97.89" y2="259.8687">
		<stop  offset="0" style="stop-color:#A71419"/>
		<stop  offset="1" style="stop-color:#E91B23"/>
	</linearGradient>
	<path style="fill:url(#SVGID_17_);" d="M175.59,200.883c-0.68,5.32-3.8,15.28-17.01,23.58c-0.43-0.68-1.04-1.23-1.79-1.56
		c-1.01-0.44-2.16-0.45-3.18-0.01c-20.3,8.67-38.01,19.5-53.04,32.33c-0.46-0.25-0.92-0.51-1.37-0.77l-8.27-4.97
		c-1.27-0.77-2.86-0.77-4.12,0l-8.26,4.97c-6.29,3.77-15.29,5.75-24.34,5.37l-9.45-9.45c-10.25-10.25-18.5-21.95-24.57-34.64
		c2.9,1.04,5.97,1.59,9.09,1.59c11.69,0,21.66-7.49,25.37-17.93c1.57,0.39,3.19,0.58,4.81,0.58c1.68,0,3.31-0.21,4.89-0.6
		c4.29,8.7,13.33,14.49,23.24,14.49c10.57,0,19.84-6.38,23.81-15.78c4.38,2.29,9.32,3.57,14.47,3.57c10.58,0,20.47-5.39,26.26-14.18
		C158.35,194.733,166.95,199.663,175.59,200.883z"/>
	<linearGradient id="SVGID_18_" gradientUnits="userSpaceOnUse" x1="8" y1="154.9626" x2="145.61" y2="154.9626">
		<stop  offset="0" style="stop-color:#006D94"/>
		<stop  offset="0.1822" style="stop-color:#00688D"/>
		<stop  offset="0.4405" style="stop-color:#00597B"/>
		<stop  offset="0.7426" style="stop-color:#00405D"/>
		<stop  offset="1" style="stop-color:#00273D"/>
	</linearGradient>
	<path style="fill:url(#SVGID_18_);" d="M134.19,173.443c2.55,4.03,6.31,7.55,11.42,9.38c-4.29,6.7-11.76,10.83-19.74,10.83
		c-9.82,0-18.67-6.19-22.03-15.41c-0.75-2.07-3.05-3.15-5.12-2.39c-2.08,0.76-3.15,3.05-2.39,5.13c1.76,4.83,4.65,9.03,8.3,12.37
		c-2.3,7.36-9.14,12.51-17.04,12.51c-6.81,0-13.01-3.95-16-9.9c2.84-2.12,5.15-4.98,6.59-8.39c0.86-2.04-0.09-4.39-2.12-5.25
		c-2.04-0.86-4.38,0.1-5.25,2.13c-1.93,4.57-6.39,7.52-11.35,7.52c-1.13,0-2.23-0.16-3.29-0.45c0.01-0.37,0.03-0.74,0.03-1.11
		c0-4.42-1.1-8.81-3.17-12.68c-1.04-1.95-3.47-2.68-5.41-1.64c-1.95,1.04-2.69,3.46-1.65,5.41c1.46,2.72,2.23,5.8,2.23,8.91
		c0,10.43-8.49,18.91-18.92,18.91c-5.27,0-10.15-2.11-13.77-5.94c-0.18-0.2-0.39-0.37-0.6-0.53c-4.54-13.08-6.91-26.97-6.91-41.22
		c0-21.72,5.48-42.58,15.78-61.03c6.07,4.2,13.29,6.48,20.77,6.48c6.22,0,12.18-1.53,17.51-4.46c4.42,11.24,15.35,18.94,27.84,18.94
		c11.66,0,22.26-6.94,27.11-17.3c0.73,0.2,1.46,0.37,2.21,0.5c-2.75,8.49-4.14,16.84-4.12,24.93c0.02,11.75,2.99,22.41,8.83,31.69
		C126.77,165.883,130.22,169.933,134.19,173.443z"/>
	<linearGradient id="SVGID_19_" gradientUnits="userSpaceOnUse" x1="27.92" y1="74.8418" x2="167.47" y2="74.8418">
		<stop  offset="0" style="stop-color:#006D94"/>
		<stop  offset="0.1822" style="stop-color:#00688D"/>
		<stop  offset="0.4405" style="stop-color:#00597B"/>
		<stop  offset="0.7426" style="stop-color:#00405D"/>
		<stop  offset="1" style="stop-color:#00273D"/>
	</linearGradient>
	<path style="fill:url(#SVGID_19_);" d="M167.47,40.803c-20.05,15.2-35.63,34.05-44.51,54.17c-0.3,0.69-0.6,1.38-0.88,2.07
		c-1.95-0.14-3.83-0.63-5.6-1.5c-3.32-1.63-5.95-4.4-7.39-7.8c-0.86-2.04-3.2-2.99-5.24-2.13c-2.03,0.86-2.99,3.21-2.12,5.24
		c1.7,4.04,4.51,7.48,8.06,9.98c-3.54,7.62-11.33,12.73-19.89,12.73c-9.83,0-18.34-6.51-21.03-15.76c4.48-4,7.91-9.04,9.98-14.72
		c0.75-2.07-0.32-4.37-2.39-5.12c-2.08-0.76-4.37,0.31-5.13,2.39c-1.85,5.07-5.09,9.5-9.38,12.8c-5.01,3.88-11.03,5.93-17.4,5.93
		c-6.01,0-11.81-1.89-16.63-5.36c4.8-7.44,10.43-14.43,16.84-20.84c17.01-17.02,38.38-28.72,61.77-33.85
		C126.76,34.613,147.66,35.243,167.47,40.803z"/>
	<linearGradient id="SVGID_20_" gradientUnits="userSpaceOnUse" x1="269.0408" y1="9.8412" x2="170.9454" y2="179.7474">
		<stop  offset="0.3574" style="stop-color:#FFFFFF"/>
		<stop  offset="0.5407" style="stop-color:#FCFCFC"/>
		<stop  offset="0.6747" style="stop-color:#F3F3F3"/>
		<stop  offset="0.793" style="stop-color:#E3E3E3"/>
		<stop  offset="0.9016" style="stop-color:#CCCCCC"/>
		<stop  offset="1" style="stop-color:#B1B1B1"/>
	</linearGradient>
	<path style="fill:url(#SVGID_20_);" d="M313.47,42.033c5.6,8.89,8.09,19.59,7.44,31.18c-0.72-4.83-2.29-9.55-4.71-14.04
		c-11.09-20.6-34.87-22.71-47.32-18.24c-10.29-7.5-30.38-6.88-41.66-3.83c-6.08,1.64-10.24,3.95-12.42,6.88
		c-15.12,0.05-44.21,8.91-51.45,37.66c-7.32,1.71-13.25,5.61-17.26,11.38c-4.74,6.83-6.63,15.96-5.34,25.41
		c-4.61,3.04-7.83,8.08-9,14.25c-1.02,5.37-0.32,10.88,1.73,14.88c-1.79,2.32-2.93,5.3-3.35,8.62c-9.45-15.79-9.41-36.32,0.15-57.98
		c9.98-22.61,29.06-43.61,53.71-59.13s51.82-23.64,76.54-22.87C284.66,16.953,303.46,26.123,313.47,42.033z"/>
	<linearGradient id="SVGID_21_" gradientUnits="userSpaceOnUse" x1="191.5542" y1="58.0429" x2="250.5132" y2="160.1628">
		<stop  offset="0" style="stop-color:#8C8C8B"/>
		<stop  offset="1" style="stop-color:#000000"/>
	</linearGradient>
	<path style="fill:url(#SVGID_21_);" d="M309.16,62.963c3.8,7.05,5.05,14.8,3.63,22.42c0,0,0,0.01-0.01,0.02
		c-0.14,0.8-0.33,1.6-0.48,2.19c-1.16,4.54-4.84,6.16-7.92,6.16c-0.01,0-0.02,0-0.03,0c-1.19,0-2.47-0.25-3.65-0.83
		c2.04-0.7,3.9-1.93,5.36-3.6c2.35-2.68,3.39-6.12,2.91-9.69c-0.08-0.59-0.17-1.17-0.28-1.74c0-0.01,0-0.01,0-0.02
		c0,0,0-0.01-0.01-0.02v-0.01c0-0.01,0-0.01,0-0.02c-0.33-1.69-0.79-3.19-1.37-4.45c-0.94-2-3.32-2.86-5.32-1.93
		c-0.79,0.37-1.39,0.96-1.79,1.67c-7.45-1.89-15.52-2.89-21.55-3.41c-4.67-0.4-9.24,1.27-12.54,4.6c-3.25,3.29-4.87,7.79-4.44,12.36
		c0.9,9.4,6.02,13.39,9,14.93c1.7,0.89,3.54,1.42,5.38,1.6c-1.15,1.81-2.69,3.34-4.65,4.62c-10.72,7.02-30.68,4.79-40.79,2.36
		c-1.15-0.27-2.36-0.02-3.31,0.68c-0.95,0.7-1.54,1.79-1.61,2.97c-0.87,14.37-14.25,24.42-14.38,24.52
		c-0.62,0.46-1.1,1.09-1.38,1.82c-0.13,0.35-3.2,8.64-4.23,20.04c-0.7,7.62,2.96,11.26,5.21,12.75c2.74,1.82,6.34,2.47,10.1,1.96
		c-0.91,2.04-2.35,3.66-4.22,4.72c-3.56,1.99-8.24,1.63-12.53-0.98c-0.93-0.57-2.06-0.73-3.11-0.45c-1.06,0.28-1.95,0.98-2.48,1.94
		c-4.59,8.36-11.01,12.87-18.55,13.03c-9.2,0.18-19.48-6.04-25.02-15.18c-0.66-1.09-1.81-1.8-3.08-1.91
		c-7.69-0.66-11.99-6.83-13.46-12.39c-1.38-5.25-0.38-10.44,2.38-12.32c0.98-0.68,1.61-1.75,1.72-2.94
		c0.11-1.18-0.31-2.35-1.15-3.19c-1.63-1.63-2.85-6.07-1.91-11.07c0.53-2.77,2.17-7.76,7.17-9.94c1.74-0.75,2.71-2.62,2.33-4.48
		c-1.7-8.21-0.37-16.5,3.56-22.17c3.26-4.69,8.18-7.57,14.63-8.56c1.66-0.26,2.99-1.53,3.31-3.18c5.12-26,30.94-33.87,44.09-33.87
		c0.77,0,1.5,0.03,2.18,0.08c1.93,0.15,3.69-1.1,4.18-2.97c0.12-0.46,1.88-2.53,8.26-4.26c12.07-3.26,30.04-2.43,36.04,3.57
		c1.22,1.22,3.08,1.52,4.62,0.75C278.46,44.893,299.98,45.933,309.16,62.963z"/>
	<path d="M411.05,67.233c25.22,25.21,39.1,58.73,39.1,94.4c0,35.66-13.88,69.18-39.1,94.39l-185.98,185.98L39.1,256.023
		C13.89,230.813,0,197.283,0,161.633c0-35.66,13.89-69.19,39.1-94.4c18.1-18.11,40.83-30.56,65.72-36.01
		c23.57-5.16,48.02-3.85,70.84,3.73c1.34-0.89,2.69-1.78,4.07-2.65c25.98-16.36,54.76-24.93,81.05-24.1
		c12.96,0.41,24.64,3.07,34.71,7.91c6.62,3.19,12.36,7.23,17.16,12.08c1.31-0.04,2.64-0.06,4-0.06
		C352.32,28.133,385.84,42.013,411.05,67.233z M442.15,161.633c0-20.84-5.04-40.9-14.55-58.79c-4.8,2.95-10.35,4.54-16.06,4.54
		c-11.98,0-22.87-7.15-27.83-17.82c-2.06,0.58-4.23,0.9-6.45,0.9c-2.18,0-4.34-0.31-6.43-0.89c-4.18,13-16.27,22.03-30.36,22.03
		c-3.27,0-6.46-0.5-9.51-1.45l11.86,21.98c2.58,4.78,2.7,10.34,0.33,15.24c-1.95,4.01-5.28,6.98-9.37,8.44l7.21,12.98
		c1.86,3.35,2.09,7.3,0.62,10.83c-1.47,3.54-4.42,6.17-8.1,7.21l-4.64,1.32c-3.38,11.01-8.9,21.63-14.4,31.48
		c-7.52,13.46-21.49,21.35-36.29,21.35c-3.79,0-7.63-0.51-11.43-1.59c-0.23-0.06-0.45-0.13-0.68-0.2
		c-3.59,3.11-12.6,11.24-19.99,20.44c9.83,0.92,20.09-0.95,27.13-5.18l8.26-4.97c1.27-0.77,2.85-0.77,4.12,0l8.26,4.97
		c11.99,7.21,32.25,7.21,44.24,0l8.27-4.97c1.27-0.77,2.85-0.77,4.12,0l6.49,3.9l8.81-32.58l-20.72-4.15
		c-2.16-0.43-3.57-2.54-3.14-4.7c0.44-2.17,2.54-3.58,4.71-3.14l21.24,4.25l5.98-22.12l-14.79-2.95c-2.16-0.44-3.57-2.54-3.14-4.71
		c0.44-2.17,2.55-3.58,4.71-3.14l15.32,3.07l4.69-17.37l-8.34-1.87c-2.15-0.49-3.51-2.63-3.02-4.78c0.48-2.16,2.62-3.51,4.78-3.03
		l8.67,1.95l1.92-7.09c0.58-2.13,2.77-3.39,4.91-2.82c2.13,0.58,3.39,2.78,2.81,4.91l-1.83,6.76l10.18,2.29
		c2.16,0.49,3.51,2.63,3.03,4.78c-0.42,1.86-2.07,3.13-3.9,3.13c-0.29,0-0.59-0.04-0.88-0.1l-10.52-2.37l-4.64,17.18l13.49,2.7
		c2.16,0.43,3.57,2.54,3.13,4.7c-0.38,1.9-2.05,3.22-3.91,3.22c-0.26,0-0.53-0.03-0.79-0.08l-14.01-2.8l-5.98,22.11l17.56,3.51
		c2.16,0.44,3.57,2.54,3.13,4.71c-0.38,1.9-2.05,3.22-3.91,3.22c-0.26,0-0.53-0.03-0.79-0.08l-18.09-3.62l-9.37,34.67
		c10.67,3.94,24.94,3.76,35.3-0.85l5.82-5.82C429.1,226.663,442.15,195.153,442.15,161.633z M411.54,99.383
		c4.3,0,8.48-1.23,12.06-3.49c-5.09-8.25-11.18-15.98-18.21-23.01c-23.09-23.1-53.62-36.08-86.2-36.72c0.36,0.53,0.71,1.06,1.05,1.6
		c9.68,15.37,11.4,35.13,4.95,55.77c0.79,1.94,1.54,4.01,2.22,6.18c3.89,2.54,8.37,3.89,13.06,3.89c11.79,0,21.72-8.43,23.61-20.05
		c0.21-1.25,0.32-2.55,0.32-3.88c0-3.93-0.97-7.83-2.81-11.27c-1.04-1.95-0.3-4.38,1.65-5.41c1.95-1.04,4.37-0.31,5.41,1.64
		c2.45,4.6,3.75,9.8,3.75,15.04c0,0.67-0.04,1.34-0.08,2c1.58,0.52,3.23,0.79,4.94,0.79c6.4,0,12.15-3.81,14.65-9.71
		c0.86-2.03,3.2-2.99,5.24-2.13c2.03,0.86,2.98,3.21,2.12,5.25c-1.79,4.24-4.72,7.75-8.33,10.28
		C394.59,94.073,402.66,99.383,411.54,99.383z M252.23,403.533l136.14-136.14c-11.88,1.46-24.67-0.62-33.75-6.09l-6.2-3.73
		l-6.21,3.73c-14.47,8.71-38.01,8.71-52.48,0l-6.2-3.73l-6.2,3.73c-7.14,4.29-16.63,6.58-26.28,6.58c-3.44,0-6.9-0.3-10.29-0.89
		c-0.65,1.02-1.26,2.04-1.82,3.06c7.51,6.94,12.71,16.04,14.26,25.58c0.01,0.03,0.02,0.12,0.03,0.15
		c1.76,11.86,4.54,22.94,8.27,32.9c0,0,1.3,3.61,2.08,5.75c0.42,1.17,0.72,2.39,0.78,3.64c0.43,8.82-6.27,14.28-11.66,16.75
		C252.46,374.283,252.3,393.533,252.23,403.533z M335.95,143.883c1.24-2.56,1.17-5.46-0.18-7.96l-3.7-7.38
		c0.17,6.6-0.27,13.33-1.44,19.88C332.96,147.723,334.86,146.113,335.95,143.883z M334.22,176.563c0.53-1.27,0.45-2.68-0.22-3.88
		l-1.86-3.35c-0.08,3.31-0.45,6.6-1.06,9.88l0.24-0.07C332.64,178.763,333.7,177.823,334.22,176.563z M323.95,136.393
		c0.17-3.22,0.18-6.44,0.04-9.62c-8.03-2.67-14.19,3.33-14.47,3.61c-0.78,0.78-1.81,1.17-2.84,1.17c-1.01,0-2.03-0.38-2.81-1.15
		c-1.56-1.55-1.59-4.06-0.05-5.63c3.19-3.26,10.66-7.86,19.46-6.4c-1.09-8.71-3.22-16.76-5.97-23c-0.01,0-0.01,0-0.01,0
		c-2.96,3.97-7.64,6.38-12.92,6.38c-0.02,0-0.03,0-0.05,0c-7.48-0.02-13.71-4.91-15.52-12.16c-0.52-2.06,0.63-4.33,2.99-4.92
		c0.97-0.24,1.99-0.02,2.89,0.43c1.82,0.93,4.05,0.44,5.36-1.05c0.45-0.52,0.94-1.32,1.02-2.41c-7.47-2.24-16.34-3.38-22.83-3.95
		c-1.71-0.15-3.46,0.16-4.93,1.05c-2.57,1.56-3.94,4.34-3.67,7.17c0.39,4.16,2.07,7.21,4.71,8.58c2.18,1.13,4.51,0.87,5.84,0.1
		c1.73-0.98,3.97-0.58,5.23,1.13c0.66,0.88,0.88,2.02,0.69,3.09c-1.21,6.72-4.68,12-10.33,15.7c-2.71,1.77-5.77,3.06-8.98,3.98
		c3.25,1.25,6.07,2.8,8.2,4.31c1.8,1.28,2.22,3.78,0.94,5.58s-3.77,2.22-5.57,0.95c-0.8-0.56-19.72-13.55-33.61,3.28
		c-0.79,0.96-1.93,1.45-3.08,1.45c-0.9,0-1.8-0.3-2.55-0.91c-1.51-1.26-1.87-3.39-0.94-5.05c0.11-0.2,0.25-0.39,0.4-0.58
		c2.81-3.4,5.82-5.92,8.92-7.71c-2.48-0.29-4.67-0.64-6.43-0.96c-0.66,3.31-1.78,6.36-3.15,9.12c-4.1,8.31-10.37,13.98-12.85,16.01
		c-0.78,2.39-2.68,8.84-3.42,16.95c-0.24,2.65,0.32,4.46,1.67,5.35c1.95,1.3,5.73,0.98,8.97-0.74c1.6-0.86,3.64-0.54,4.91,0.91
		c0.65,0.74,0.97,1.71,0.97,2.69c-0.02,7.73-3.47,14.09-9.47,17.46c-5.06,2.84-11.2,3.05-17.02,0.69
		c-4.07,6.11-10.48,12.24-20.06,13.6c-0.66,6.94-4.25,19.98-20.84,30.37c5.25,5.83,15.04,12.05,28.56,18.03
		c11.16,4.92,21.1,8.06,23.28,8.72c0,0,0.01,0.01,0.02,0.01c4.74,0.77,9.44,2.32,13.92,4.68c1.38,0.72,2.71,1.53,4,2.37
		c6.6-11.37,17.9-22.56,24.6-28.68c-41.2-14.18-52.57-36.05-53.07-37.04c-0.99-1.97-0.19-4.37,1.79-5.36s4.38-0.19,5.37,1.79
		c0.1,0.21,12.34,23.12,57.67,35.92c15.07,4.25,30.93-2.32,38.56-15.98c6.53-11.69,11.57-22.11,14.35-31.86
		c0.02-0.09,0.04-0.19,0.08-0.28c2.24-7.99,2.94-15.54,1.68-22.97c-2.1,0.72-4.43,1.01-6.83,1.01c-8.17,0-17.06-3.33-19.59-4.35
		c-1.97-0.79-2.97-2.99-2.29-5c0.18-0.51,4.39-12.52,14.77-16.29C314.13,134.363,318.92,134.503,323.95,136.393z M321.79,151.633
		c0.27-1.09,0.51-2.2,0.72-3.32c-1.78-0.5-3.55-0.76-5.23-0.86c0.04,0.31,0.07,0.63,0.07,0.95c0,1.98-0.78,3.78-2.04,5.13
		c2.62,0.18,4.89-0.02,6.38-0.75C321.66,152.403,321.7,152.013,321.79,151.633z M320.91,73.213c0.65-11.59-1.84-22.29-7.44-31.18
		c-10.01-15.91-28.81-25.08-52.94-25.83c-24.72-0.77-51.89,7.35-76.54,22.87s-43.73,36.52-53.71,59.13
		c-9.56,21.66-9.6,42.19-0.15,57.98c0.42-3.32,1.56-6.3,3.35-8.62c-2.05-4-2.75-9.51-1.73-14.88c1.17-6.17,4.39-11.21,9-14.25
		c-1.29-9.45,0.6-18.58,5.34-25.41c4.01-5.77,9.94-9.67,17.26-11.38c7.24-28.75,36.33-37.61,51.45-37.66
		c2.18-2.93,6.34-5.24,12.42-6.88c11.28-3.05,31.37-3.67,41.66,3.83c12.45-4.47,36.23-2.36,47.32,18.24
		C318.62,63.663,320.19,68.383,320.91,73.213z M312.79,85.383c1.42-7.62,0.17-15.37-3.63-22.42c-9.18-17.03-30.7-18.07-39.19-13.82
		c-1.54,0.77-3.4,0.47-4.62-0.75c-6-6-23.97-6.83-36.04-3.57c-6.38,1.73-8.14,3.8-8.26,4.26c-0.49,1.87-2.25,3.12-4.18,2.97
		c-0.68-0.05-1.41-0.08-2.18-0.08c-13.15,0-38.97,7.87-44.09,33.87c-0.32,1.65-1.65,2.92-3.31,3.18
		c-6.45,0.99-11.37,3.87-14.63,8.56c-3.93,5.67-5.26,13.96-3.56,22.17c0.38,1.86-0.59,3.73-2.33,4.48c-5,2.18-6.64,7.17-7.17,9.94
		c-0.94,5,0.28,9.44,1.91,11.07c0.84,0.84,1.26,2.01,1.15,3.19c-0.11,1.19-0.74,2.26-1.72,2.94c-2.76,1.88-3.76,7.07-2.38,12.32
		c1.47,5.56,5.77,11.73,13.46,12.39c1.27,0.11,2.42,0.82,3.08,1.91c5.54,9.14,15.82,15.36,25.02,15.18
		c7.54-0.16,13.96-4.67,18.55-13.03c0.53-0.96,1.42-1.66,2.48-1.94c1.05-0.28,2.18-0.12,3.11,0.45c4.29,2.61,8.97,2.97,12.53,0.98
		c1.87-1.06,3.31-2.68,4.22-4.72c-3.76,0.51-7.36-0.14-10.1-1.96c-2.25-1.49-5.91-5.13-5.21-12.75c1.03-11.4,4.1-19.69,4.23-20.04
		c0.28-0.73,0.76-1.36,1.38-1.82c0.13-0.1,13.51-10.15,14.38-24.52c0.07-1.18,0.66-2.27,1.61-2.97c0.95-0.7,2.16-0.95,3.31-0.68
		c10.11,2.43,30.07,4.66,40.79-2.36c1.96-1.28,3.5-2.81,4.65-4.62c-1.84-0.18-3.68-0.71-5.38-1.6c-2.98-1.54-8.1-5.53-9-14.93
		c-0.43-4.57,1.19-9.07,4.44-12.36c3.3-3.33,7.87-5,12.54-4.6c6.03,0.52,14.1,1.52,21.55,3.41c0.4-0.71,1-1.3,1.79-1.67
		c2-0.93,4.38-0.07,5.32,1.93c0.58,1.26,1.04,2.76,1.37,4.45c0,0.01,0,0.01,0,0.02v0.01c0.01,0.01,0.01,0.02,0.01,0.02
		c0,0.01,0,0.01,0,0.02c0.11,0.57,0.2,1.15,0.28,1.74c0.48,3.57-0.56,7.01-2.91,9.69c-1.46,1.67-3.32,2.9-5.36,3.6
		c1.18,0.58,2.46,0.83,3.65,0.83c0.01,0,0.02,0,0.03,0c3.08,0,6.76-1.62,7.92-6.16c0.15-0.59,0.34-1.39,0.48-2.19
		C312.79,85.393,312.79,85.383,312.79,85.383z M252.81,345.433c1.52-1.22,2.9-2.88,3.38-5.04c-1.11-0.03-2.21-0.03-3.31-0.04
		C252.86,342.033,252.83,343.733,252.81,345.433z M254.34,332.363l-0.33-0.87c-3.93-10.49-6.85-22.12-8.7-34.56
		c-1.8-11.06-9.64-21.46-20.46-27.15c-3.79-1.99-7.7-3.3-11.62-3.93c-0.17-0.02-0.33-0.04-0.49-0.08c-6.59-0.96-13.2,0-19.35,2.91
		c-2.11,0.99-4.64-0.01-5.47-2.24c-0.73-1.99,0.34-4.19,2.26-5.09c1.56-0.73,3.16-1.35,4.77-1.87c-1.68-0.68-3.42-1.4-5.2-2.17
		c-31.65,14.15-52,40.22-60.52,77.53l25.27,25.27c-2.57-6.58-5.19-10.06-6.89-11.78c-1.34-1.36-1.51-3.55-0.3-5.17
		c1.5-2.02,4.37-2.07,6.12-0.26c3.11,3.22,7.15,9.19,10.48,20.01C175.82,353.423,208.28,331.643,254.34,332.363z M244.18,410.543
		c0-0.26,0.53-53.85,0.71-69.98c-42.66,2.42-71.75,24.93-78.76,30.92c0.02,0.11,0.04,0.22,0.07,0.33l58.87,58.88l19.22-19.22
		C244.22,411.173,244.18,410.863,244.18,410.543z M158.58,224.463c13.21-8.3,16.33-18.26,17.01-23.58
		c-8.64-1.22-17.24-6.15-23.46-13.41c-5.79,8.79-15.68,14.18-26.26,14.18c-5.15,0-10.09-1.28-14.47-3.57
		c-3.97,9.4-13.24,15.78-23.81,15.78c-9.91,0-18.95-5.79-23.24-14.49c-1.58,0.39-3.21,0.6-4.89,0.6c-1.62,0-3.24-0.19-4.81-0.58
		c-3.71,10.44-13.68,17.93-25.37,17.93c-3.12,0-6.19-0.55-9.09-1.59c6.07,12.69,14.32,24.39,24.57,34.64l9.45,9.45
		c9.05,0.38,18.05-1.6,24.34-5.37l8.26-4.97c1.26-0.77,2.85-0.77,4.12,0l8.27,4.97c0.45,0.26,0.91,0.52,1.37,0.77
		c15.03-12.83,32.74-23.66,53.04-32.33c1.02-0.44,2.17-0.43,3.18,0.01C157.54,223.233,158.15,223.783,158.58,224.463z
		 M180.36,252.953c-13.76-6.89-22.86-13.98-27.12-21.17c-30.32,13.54-54.42,32.15-71.74,55.33l41.11,41.11
		C131.72,293.273,151.11,268.013,180.36,252.953z M122.96,94.973c8.88-20.12,24.46-38.97,44.51-54.17
		c-19.81-5.56-40.71-6.19-60.94-1.77c-23.39,5.13-44.76,16.83-61.77,33.85c-6.41,6.41-12.04,13.4-16.84,20.84
		c4.82,3.47,10.62,5.36,16.63,5.36c6.37,0,12.39-2.05,17.4-5.93c4.29-3.3,7.53-7.73,9.38-12.8c0.76-2.08,3.05-3.15,5.13-2.39
		c2.07,0.75,3.14,3.05,2.39,5.12c-2.07,5.68-5.5,10.72-9.98,14.72c2.69,9.25,11.2,15.76,21.03,15.76c8.56,0,16.35-5.11,19.89-12.73
		c-3.55-2.5-6.36-5.94-8.06-9.98c-0.87-2.03,0.09-4.38,2.12-5.24c2.04-0.86,4.38,0.09,5.24,2.13c1.44,3.4,4.07,6.17,7.39,7.8
		c1.77,0.87,3.65,1.36,5.6,1.5C122.36,96.353,122.66,95.663,122.96,94.973z M145.61,182.823c-5.11-1.83-8.87-5.35-11.42-9.38
		c-3.97-3.51-7.42-7.56-10.26-12.06c-5.84-9.28-8.81-19.94-8.83-31.69c-0.02-8.09,1.37-16.44,4.12-24.93
		c-0.75-0.13-1.48-0.3-2.21-0.5c-4.85,10.36-15.45,17.3-27.11,17.3c-12.49,0-23.42-7.7-27.84-18.94
		c-5.33,2.93-11.29,4.46-17.51,4.46c-7.48,0-14.7-2.28-20.77-6.48C13.48,119.053,8,139.913,8,161.633c0,14.25,2.37,28.14,6.91,41.22
		c0.21,0.16,0.42,0.33,0.6,0.53c3.62,3.83,8.5,5.94,13.77,5.94c10.43,0,18.92-8.48,18.92-18.91c0-3.11-0.77-6.19-2.23-8.91
		c-1.04-1.95-0.3-4.37,1.65-5.41c1.94-1.04,4.37-0.31,5.41,1.64c2.07,3.87,3.17,8.26,3.17,12.68c0,0.37-0.02,0.74-0.03,1.11
		c1.06,0.29,2.16,0.45,3.29,0.45c4.96,0,9.42-2.95,11.35-7.52c0.87-2.03,3.21-2.99,5.25-2.13c2.03,0.86,2.98,3.21,2.12,5.25
		c-1.44,3.41-3.75,6.27-6.59,8.39c2.99,5.95,9.19,9.9,16,9.9c7.9,0,14.74-5.15,17.04-12.51c-3.65-3.34-6.54-7.54-8.3-12.37
		c-0.76-2.08,0.31-4.37,2.39-5.13c2.07-0.76,4.37,0.32,5.12,2.39c3.36,9.22,12.21,15.41,22.03,15.41
		C133.85,193.653,141.32,189.523,145.61,182.823z M94.3,260.833l-5.43-3.26l-6.2,3.73c-5.72,3.44-12.96,5.59-20.68,6.3l13.79,13.79
		C81.32,274.093,87.5,267.243,94.3,260.833z"/>
	<path d="M303.75,200.603c2.18,0.32,3.7,2.34,3.39,4.53c-0.29,2-2,3.43-3.96,3.44c-0.18,0-0.37-0.02-0.57-0.05
		c-0.26-0.03-0.57-0.07-0.9-0.1l-1.53,2.32c-2.41,3.65-6.46,5.82-10.83,5.82c-4.61,0-8.91-2.47-11.23-6.46l-1.23-2.12
		c-2.25,0.03-4.2,0.06-5.63,0.08c-2.24,0.08-4.04-1.71-4.08-3.92c-0.04-2.2,1.71-4.03,3.92-4.07c0.2-0.01,1.23-0.03,2.83-0.05
		l7.34-4.96c2.04-1.37,4.55-1.72,6.89-0.95c1.39,0.46,2.6,1.27,3.52,2.34l0.16-0.19c1.38-1.68,3.57-2.47,5.71-2.04
		c2.13,0.43,3.85,1.99,4.49,4.07l0.66,2.19C303.08,200.523,303.43,200.563,303.75,200.603z M289.35,208.563c0.82,0,1.6-0.2,2.3-0.57
		c-1.52-0.02-3.1-0.04-4.69-0.04C287.69,208.343,288.5,208.563,289.35,208.563z"/>
	<path d="M302.97,176.993c1.97,0.98,2.77,3.39,1.79,5.36c-0.7,1.4-2.12,2.22-3.58,2.22c-0.61,0-1.22-0.14-1.79-0.43l-2-1
		c-1.98-0.99-2.78-3.39-1.79-5.36c0.99-1.98,3.39-2.78,5.37-1.79L302.97,176.993z"/>
	<path d="M292.65,179.073c0.27,2.19-1.28,4.19-3.47,4.46l-4,0.5c-0.17,0.02-0.34,0.03-0.51,0.03c-1.98,0-3.71-1.48-3.96-3.5
		c-0.27-2.19,1.28-4.19,3.47-4.46l4-0.5C290.38,175.323,292.37,176.883,292.65,179.073z"/>
	<path d="M272.62,135.293c6.47,6.52,6.07,15.6,6.05,15.98c-0.07,1.33-0.79,2.53-1.92,3.22c-4.9,2.95-13.16,6.12-22.03,6.12
		c-6.8,0-13.95-1.86-20.22-7.08c-0.33,0.23-0.67,0.43-1.03,0.61c-1.98,0.99-4.38,0.19-5.37-1.79c-0.99-1.97-0.19-4.38,1.79-5.36
		c0.22-0.11,0.45-0.56,0.6-0.91c0-0.01,0.01-0.01,0.01-0.02c0,0,0,0,0-0.01c0,0,0,0,0.01,0c0.26-0.6,0.52-1.38,0.79-2.2
		c1.72-5.23,4.59-13.98,22.2-14.78C261.72,128.693,268.15,130.793,272.62,135.293z M270.54,148.723c-0.18-1.29-0.58-3.01-1.42-4.71
		c-2.81-0.72-5.38-1.22-7.74-1.54c0.19,0.67,0.3,1.37,0.3,2.09c0,4.15-3.36,7.5-7.5,7.5c-4.14,0-7.5-3.35-7.5-7.5
		c0-0.6,0.08-1.18,0.21-1.74c-4.61,1.08-7.11,2.92-8.07,3.78c-0.01,0.02-0.02,0.04-0.03,0.06c4.27,3.91,9.42,5.91,15.38,5.98
		c1.76,0.02,3.59-0.12,5.49-0.44C264.29,151.433,268.25,149.813,270.54,148.723z"/>
</g>
<g>
</g>
<g>
</g>
<g>
</g>
<g>
</g>
<g>
</g>
<g>
</g>
<g>
</g>
<g>
</g>
<g>
</g>
<g>
</g>
<g>
</g>
<g>
</g>
<g>
</g>
<g>
</g>
<g>
</g>
</svg>
