<?xml version="1.0" encoding="iso-8859-1"?>
<!-- Generator: Adobe Illustrator 19.1.0, SVG Export Plug-In . SVG Version: 6.00 Build 0)  -->
<svg version="1.1" id="Capa_1" xmlns="http://www.w3.org/2000/svg" xmlns:xlink="http://www.w3.org/1999/xlink" x="0px" y="0px"
	 viewBox="0 0 425.28 425.28" style="enable-background:new 0 0 425.28 425.28;" xml:space="preserve">
<g>
	<path style="fill:#333333;" d="M395.38,182.74v187.5c0,4.42-3.58,8-8,8H320.5c-27.94,29.94-67.15,47.04-108.17,47.04
		c-41.03,0-80.24-17.1-108.17-47.04H37.9c-4.42,0-8-3.58-8-8v-187.5c0-39.64,12.48-77.36,36.1-109.06
		c16.66-22.36,38.54-40.89,63.28-53.6C155.23,6.76,183.27,0,212.64,0c29.17,0,57.05,6.67,82.86,19.83
		c24.62,12.55,46.45,30.87,63.12,52.99C382.67,104.7,395.38,142.71,395.38,182.74z M379.38,362.24v-179.5
		c0-36.53-11.6-71.21-33.53-100.29c-15.23-20.19-35.15-36.91-57.61-48.36C264.7,22.09,239.26,16,212.64,16
		c-26.8,0-52.38,6.16-76.05,18.32c-22.58,11.59-42.55,28.51-57.76,48.92c-21.54,28.92-32.93,63.33-32.93,99.5v179.5h45.28
		c-17.35-24.75-26.76-54.33-26.76-84.88v-77.15c-0.85,0.24-1.7,0.47-2.54,0.71c-4.24,1.24-8.68-1.2-9.91-5.45
		c-1.24-4.24,1.2-8.68,5.45-9.91c14.07-4.09,28.25-7.59,42.51-10.54c0.21-16.57,3.24-58.96,27.47-84.92
		c3.01-3.23,8.08-3.4,11.31-0.39c3.23,3.01,3.4,8.08,0.39,11.31c-18.89,20.23-22.47,54.54-23.06,70.89
		c12.93-2.28,25.9-4.1,38.92-5.46c0.24-18.16,5.73-45.06,6.46-48.53c0.9-4.32,5.14-7.1,9.46-6.19c4.33,0.9,7.1,5.14,6.2,9.46
		c-1.77,8.48-5.64,29.89-6.1,43.83c49.27-3.71,98.89-0.84,147.63,8.63c1.14-12.86,0.7-39.56-17.68-63.18
		c-2.71-3.49-2.08-8.51,1.41-11.23c3.48-2.71,8.51-2.08,11.22,1.41c22.73,29.22,22.49,61.55,20.84,76.32
		c11.21,2.52,22.37,5.37,33.46,8.59c4.24,1.23,6.68,5.67,5.45,9.91c-1.02,3.5-4.21,5.77-7.68,5.77c-0.74,0-1.49-0.1-2.24-0.32
		c-1.05-0.3-2.1-0.58-3.15-0.88v77.32c0,30.55-9.41,60.13-26.77,84.88H379.38z M344.24,277.36v-21.09h-6.26l-7.66,35
		c-0.81,3.67-4.06,6.29-7.82,6.29h-81.73c-3.76,0-7.01-2.62-7.81-6.29l-3.02-13.79c-1.77-8.07-9.04-13.92-17.3-13.92
		s-15.54,5.85-17.31,13.92l-3.01,13.79c-0.81,3.67-4.06,6.29-7.82,6.29h-81.73c-3.76,0-7.01-2.62-7.81-6.29l-7.67-35h-6.87v21.09
		c0,32.33,11.81,63.43,33.25,87.57c25.03,28.18,60.99,44.35,98.66,44.35c37.66,0,73.62-16.17,98.65-44.35
		C332.43,340.79,344.24,309.69,344.24,277.36z M344.24,240.27v-2.71h-2.16l-0.6,2.71H344.24z M344.24,221.56v-25.82
		c-86.7-21.79-177.14-21.74-263.82,0.15v25.67h9.22h26.28h38.54h116.35h38.54h26.29H344.24z M316.06,281.56l9.64-44h-13.3l-17.6,44
		H316.06z M277.57,281.56l17.6-44h-8.14l-17.6,44H277.57z M252.2,281.56l17.6-44h-92.24l-17.6,44h18.1l1.64-7.5
		c3.37-15.36,17.22-26.5,32.94-26.5s29.57,11.14,32.93,26.5l1.64,7.5H252.2z M142.72,281.56l17.6-44h-9.94l-17.6,44H142.72z
		 M115.55,281.56l17.6-44H99.58l9.63,44H115.55z M83.79,240.27l-0.59-2.71h-2.78v2.71H83.79z"/>
	<path style="fill:#F7E8BC;" d="M379.38,182.74v179.5h-45.91c17.36-24.75,26.77-54.33,26.77-84.88v-77.32
		c1.05,0.3,2.1,0.58,3.15,0.88c0.75,0.22,1.5,0.32,2.24,0.32c3.47,0,6.66-2.27,7.68-5.77c1.23-4.24-1.21-8.68-5.45-9.91
		c-11.09-3.22-22.25-6.07-33.46-8.59c1.65-14.77,1.89-47.1-20.84-76.32c-2.71-3.49-7.74-4.12-11.22-1.41
		c-3.49,2.72-4.12,7.74-1.41,11.23c18.38,23.62,18.82,50.32,17.68,63.18c-48.74-9.47-98.36-12.34-147.63-8.63
		c0.46-13.94,4.33-35.35,6.1-43.83c0.9-4.32-1.87-8.56-6.2-9.46c-4.32-0.91-8.56,1.87-9.46,6.19c-0.73,3.47-6.22,30.37-6.46,48.53
		c-13.02,1.36-25.99,3.18-38.92,5.46c0.59-16.35,4.17-50.66,23.06-70.89c3.01-3.23,2.84-8.3-0.39-11.31
		c-3.23-3.01-8.3-2.84-11.31,0.39c-24.23,25.96-27.26,68.35-27.47,84.92c-14.26,2.95-28.44,6.45-42.51,10.54
		c-4.25,1.23-6.69,5.67-5.45,9.91c1.23,4.25,5.67,6.69,9.91,5.45c0.84-0.24,1.69-0.47,2.54-0.71v77.15
		c0,30.55,9.41,60.13,26.76,84.88H45.9v-179.5c0-36.17,11.39-70.58,32.93-99.5c15.21-20.41,35.18-37.33,57.76-48.92
		C160.26,22.16,185.84,16,212.64,16c26.62,0,52.06,6.09,75.6,18.09c22.46,11.45,42.38,28.17,57.61,48.36
		C367.78,111.53,379.38,146.21,379.38,182.74z"/>
	<path style="fill:#FCF2FA;" d="M344.24,256.27v21.09c0,32.33-11.81,63.43-33.26,87.57c-25.03,28.18-60.99,44.35-98.65,44.35
		c-37.67,0-73.63-16.17-98.66-44.35c-21.44-24.14-33.25-55.24-33.25-87.57v-21.09h6.87l7.67,35c0.8,3.67,4.05,6.29,7.81,6.29h81.73
		c3.76,0,7.01-2.62,7.82-6.29l3.01-13.79c1.77-8.07,9.05-13.92,17.31-13.92s15.53,5.85,17.3,13.92l3.02,13.79
		c0.8,3.67,4.05,6.29,7.81,6.29h81.73c3.76,0,7.01-2.62,7.82-6.29l7.66-35H344.24z M274.59,317.61c0.29-2.69-0.81-5.35-2.92-7.05
		c-2.1-1.71-4.93-2.24-7.5-1.4c-33.72,10.96-69.35,10.96-103.06,0c-2.58-0.83-5.4-0.31-7.51,1.4c-2.11,1.7-3.2,4.36-2.92,7.05
		c2,18.89,6.24,37.86,12.6,56.39c0.93,2.72,3.25,4.73,6.08,5.26c14.36,2.72,28.82,4.08,43.28,4.08s28.92-1.36,43.28-4.08
		c2.82-0.53,5.14-2.54,6.07-5.26C268.35,355.48,272.59,336.5,274.59,317.61z"/>
	<path style="fill:#FCF2FA;" d="M344.24,195.74v25.82h-8.6h-26.29v-2.3c2.04,0,4.09-0.78,5.65-2.34c3.13-3.13,3.13-8.19,0-11.31
		c-6.65-6.66-15.5-10.33-24.92-10.33c-9.42,0-18.27,3.67-24.92,10.33c-3.13,3.12-3.13,8.18-0.01,11.31
		c1.57,1.56,3.61,2.34,5.66,2.34v2.3H154.46v-2.3c2.05,0,4.1-0.78,5.66-2.34c3.12-3.13,3.12-8.19,0-11.31
		c-6.66-6.66-15.51-10.33-24.93-10.33c-9.41,0-18.26,3.67-24.92,10.33c-3.13,3.12-3.13,8.18,0,11.31c1.56,1.56,3.61,2.34,5.65,2.34
		v2.3H89.64h-9.22v-25.67C167.1,174,257.54,173.95,344.24,195.74z"/>
	<polygon style="fill:#515151;" points="325.7,237.56 316.06,281.56 294.8,281.56 312.4,237.56 	"/>
	<path style="fill:#967C41;" d="M315,205.61c3.13,3.12,3.13,8.18,0,11.31c-1.56,1.56-3.61,2.34-5.65,2.34
		c-2.05,0-4.1-0.78-5.66-2.34c-3.63-3.64-8.47-5.64-13.61-5.64c-5.14,0-9.98,2-13.61,5.64c-1.56,1.56-3.61,2.34-5.66,2.34
		s-4.09-0.78-5.66-2.34c-3.12-3.13-3.12-8.19,0.01-11.31c6.65-6.66,15.5-10.33,24.92-10.33C299.5,195.28,308.35,198.95,315,205.61z"
		/>
	<polygon style="fill:#FFFFFF;" points="295.17,237.56 277.57,281.56 269.43,281.56 287.03,237.56 	"/>
	<path style="fill:#333333;" d="M271.67,310.56c2.11,1.7,3.21,4.36,2.92,7.05c-2,18.89-6.24,37.87-12.6,56.39
		c-0.93,2.72-3.25,4.73-6.07,5.26c-14.36,2.72-28.82,4.08-43.28,4.08s-28.92-1.36-43.28-4.08c-2.83-0.53-5.15-2.54-6.08-5.26
		c-6.36-18.53-10.6-37.5-12.6-56.39c-0.28-2.69,0.81-5.35,2.92-7.05c2.11-1.71,4.93-2.23,7.51-1.4c33.71,10.96,69.34,10.96,103.06,0
		C266.74,308.32,269.57,308.85,271.67,310.56z M255.64,336.07c0.54-2.74,1.03-5.49,1.46-8.23c-29.3,7.39-59.63,7.39-88.93,0
		c0.43,2.74,0.93,5.49,1.46,8.23C197.85,343.61,227.43,343.61,255.64,336.07z M248.34,364.36c1.16-3.59,2.22-7.2,3.21-10.82
		c-12.83,2.8-25.87,4.21-38.91,4.21s-26.09-1.41-38.92-4.21c0.99,3.62,2.05,7.23,3.21,10.82
		C200.65,368.33,224.63,368.33,248.34,364.36z"/>
	<path style="fill:#515151;" d="M269.8,237.56l-17.6,44h-4.99l-1.64-7.5c-3.36-15.36-17.21-26.5-32.93-26.5s-29.57,11.14-32.94,26.5
		l-1.64,7.5h-18.1l17.6-44H269.8z"/>
	<path style="fill:#967C41;" d="M160.12,205.61c3.12,3.12,3.12,8.18,0,11.31c-1.56,1.56-3.61,2.34-5.66,2.34
		c-2.05,0-4.09-0.78-5.66-2.34c-3.63-3.64-8.46-5.64-13.61-5.64c-5.14,0-9.97,2-13.61,5.64c-1.56,1.56-3.61,2.34-5.66,2.34
		c-2.04,0-4.09-0.78-5.65-2.34c-3.13-3.13-3.13-8.19,0-11.31c6.66-6.66,15.51-10.33,24.92-10.33
		C144.61,195.28,153.46,198.95,160.12,205.61z"/>
	<polygon style="fill:#FFFFFF;" points="160.32,237.56 142.72,281.56 132.78,281.56 150.38,237.56 	"/>
	<polygon style="fill:#515151;" points="133.15,237.56 115.55,281.56 109.21,281.56 99.58,237.56 	"/>
</g>
<g>
</g>
<g>
</g>
<g>
</g>
<g>
</g>
<g>
</g>
<g>
</g>
<g>
</g>
<g>
</g>
<g>
</g>
<g>
</g>
<g>
</g>
<g>
</g>
<g>
</g>
<g>
</g>
<g>
</g>
</svg>
