<svg xmlns="http://www.w3.org/2000/svg" viewBox="0 0 32 32"><path fill="#607d95" d="M7.5 18c-1.1 0-2-.9-2-2 0-.6.2-1.1.6-1.4.3-.4.8-.6 1.4-.6"/><path fill="#fff" d="M7.5 17c-.6 0-1-.4-1-1 0-.3.1-.5.3-.7.2-.2.4-.3.7-.3"/><path fill="#607d95" d="M5.5 16.5h-1c-.3 0-.5-.2-.5-.5s.2-.5.5-.5h1c.3 0 .5.2.5.5s-.2.5-.5.5zM6.1 15.1c-.1 0-.3 0-.4-.1l-.7-.8c-.2-.2-.2-.5 0-.7s.5-.2.7 0l.7.7c.2.2.2.5 0 .7-.1.1-.2.2-.3.2zM5.4 18.6c-.1 0-.3 0-.4-.1-.2-.2-.2-.5 0-.7l.7-.7c.2-.2.5-.2.7 0s.2.5 0 .7l-.7.7c-.1.1-.2.1-.3.1z"/><path fill="#607d95" d="M7.5 18.5C6.1 18.5 5 17.4 5 16c0-.7.3-1.3.7-1.8.5-.5 1.1-.7 1.8-.7v1c-.4 0-.8.2-1.1.4-.2.3-.4.7-.4 1.1 0 .8.7 1.5 1.5 1.5v1z"/><path fill="#91ca60" d="M25.5 21h-17c-.6 0-1-.4-1-1V8c0-.6.4-1 1-1h17c.6 0 1 .4 1 1v12c0 .6-.4 1-1 1z"/><path fill="#607d95" d="M7.5 20c0 .6.4 1 1 1h17c.6 0 1-.4 1-1v-2h-19v2z"/><path fill="#4b6c85" d="M9.5 20v-2h-2v2c0 .6.4 1 1 1h2c-.6 0-1-.5-1-1z"/><path fill="#70bb57" d="M25.5 15.9h-11c-2.8 0-5-2.2-5-5V8c0-.6.4-1 1-1h-2c-.6 0-1 .4-1 1v9.9h19v-3c0 .6-.4 1-1 1z"/><path fill="#eef2fa" d="M14.5 21h5v4h-5z"/><path fill="#d5e5f2" d="M17 22.5h2.5V21h-5v4H16v-1.5c0-.6.4-1 1-1z"/><path fill="#607d95" d="M31.5 14.5v-2h-1.2c-.1-.2-.2-.4-.3-.7l.8-.8-1.4-1.4-.8.8c-.2-.1-.4-.2-.7-.3V9h-1.5v3.1c.3-.1.4-.1.6-.1.8 0 1.5.7 1.5 1.5S27.8 15 27 15c-.2 0-.3 0-.5-.1V18H28v-1.2c.2-.1.4-.2.7-.3l.8.8 1.4-1.4-.8-.8c.1-.2.2-.4.3-.7h1.1z"/><path fill="#004463" d="M13.5 15.5h-3c-.1 0-.3-.1-.4-.2s-.1-.2-.1-.4l.8-4c.1-.3.3-.5.6-.4.3.1.5.3.4.6l-.6 3.4h2.4c.3 0 .5.2.5.5s-.3.5-.6.5z"/><path fill="#004463" d="M12.5 16.5c-.3 0-.5-.2-.5-.5v-3c0-.3.2-.5.5-.5s.5.2.5.5v3c0 .3-.2.5-.5.5zM23.5 15.5h-3c-.1 0-.3-.1-.4-.2s-.1-.2-.1-.4l.8-4c.1-.3.3-.5.6-.4.3.1.5.3.4.6l-.6 3.4h2.4c.3 0 .5.2.5.5s-.3.5-.6.5z"/><path fill="#004463" d="M22.5 16.5c-.3 0-.5-.2-.5-.5v-3c0-.3.2-.5.5-.5s.5.2.5.5v3c0 .3-.2.5-.5.5z"/><path fill="#eef2fa" d="M23.5 25.5h-13c-.3 0-.5-.2-.5-.5s.2-.5.5-.5h13c.3 0 .5.2.5.5s-.2.5-.5.5z"/><path fill="#607d95" d="M6.5 22.5h-1c-.3 0-.5-.2-.5-.5s.2-.5.5-.5h1c.3 0 .5.2.5.5s-.2.5-.5.5zM1.5 22.5h-1c-.3 0-.5-.2-.5-.5s.2-.5.5-.5h1c.3 0 .5.2.5.5s-.2.5-.5.5zM3.5 20.5c-.3 0-.5-.2-.5-.5v-1c0-.3.2-.5.5-.5s.5.2.5.5v1c0 .3-.2.5-.5.5zM3.5 25.5c-.3 0-.5-.2-.5-.5v-1c0-.3.2-.5.5-.5s.5.2.5.5v1c0 .3-.2.5-.5.5zM2.1 21.1c-.1 0-.3 0-.4-.1l-.7-.8c-.2-.2-.2-.5 0-.7s.5-.2.7 0l.7.7c.2.2.2.5 0 .7-.1.1-.2.2-.3.2zM5.6 24.6c-.1 0-.3 0-.4-.1l-.7-.7c-.2-.2-.2-.5 0-.7s.5-.2.7 0l.8.7c.2.2.2.5 0 .7-.1.1-.3.1-.4.1zM4.9 21.1c-.1 0-.3 0-.4-.1-.2-.2-.2-.5 0-.7l.7-.7c.2-.2.5-.2.7 0s.2.5 0 .7l-.7.7s-.2.1-.3.1zM1.4 24.6c-.1 0-.3 0-.4-.1-.2-.2-.2-.5 0-.7l.7-.7c.2-.2.5-.2.7 0s.2.5 0 .7l-.7.7c-.1.1-.2.1-.3.1z"/><path fill="#004463" d="M17.5 16.5h-1c-.8 0-1.5-.7-1.5-1.5v-3c0-.8.7-1.5 1.5-1.5h1c.8 0 1.5.7 1.5 1.5v3c0 .8-.7 1.5-1.5 1.5zm-1-5c-.3 0-.5.2-.5.5v3c0 .3.2.5.5.5h1c.3 0 .5-.2.5-.5v-3c0-.3-.2-.5-.5-.5h-1z"/><path fill="#607d95" d="M3.5 19.5c-.7 0-1.3.3-1.8.7-.4.5-.7 1.1-.7 1.8 0 1.4 1.1 2.5 2.5 2.5S6 23.4 6 22s-1.1-2.5-2.5-2.5zm0 3.5c-.6 0-1-.4-1-1s.4-1 1-1 1 .4 1 1-.4 1-1 1z"/></svg>